<svg width="549" height="85" viewBox="152 174 549 85" fill="none" xmlns="http://www.w3.org/2000/svg">
<path d="M164 213.705H180.249C181.505 213.705 182.242 212.291 181.521 211.262L168.403 192.521C167.407 191.098 169.142 189.363 170.565 190.359L189.306 203.477C190.335 204.198 191.749 203.461 191.749 202.205V185.956C191.749 185.544 191.586 185.149 191.294 184.858L180.847 174.411C180.556 174.12 180.161 173.956 179.749 173.956H153.553C152.695 173.956 152 174.651 152 175.509V201.705C152 202.117 152.164 202.512 152.455 202.803L162.902 213.25C163.193 213.542 163.588 213.705 164 213.705Z" fill="#FFFEFA"/>
<path d="M197.339 185.956V202.205C197.339 203.461 198.753 204.198 199.782 203.477L218.523 190.359C219.946 189.363 221.681 191.098 220.685 192.521L207.567 211.262C206.846 212.291 207.583 213.705 208.839 213.705H225.088C225.5 213.705 225.895 213.542 226.186 213.25L236.633 202.803C236.924 202.512 237.088 202.117 237.088 201.705V175.509C237.088 174.651 236.393 173.956 235.535 173.956L209.339 173.956C208.927 173.956 208.532 174.12 208.241 174.411L197.794 184.858C197.502 185.149 197.339 185.544 197.339 185.956Z" fill="#FFFEFA"/>
<path d="M225.088 219.295H208.839C207.583 219.295 206.846 220.709 207.567 221.738L220.685 240.479C221.681 241.902 219.946 243.637 218.523 242.641L199.782 229.523C198.753 228.802 197.339 229.539 197.339 230.795V247.044C197.339 247.456 197.502 247.851 197.794 248.142L208.241 258.589C208.532 258.88 208.927 259.044 209.339 259.044H235.535C236.393 259.044 237.088 258.349 237.088 257.491V231.295C237.088 230.883 236.924 230.488 236.633 230.197L226.186 219.75C225.895 219.458 225.5 219.295 225.088 219.295Z" fill="#FFFEFA"/>
<path d="M191.749 247.044V230.795C191.749 229.539 190.335 228.802 189.306 229.523L170.565 242.641C169.142 243.637 167.407 241.902 168.403 240.479L181.521 221.738C182.242 220.709 181.505 219.295 180.249 219.295H164C163.588 219.295 163.193 219.458 162.902 219.75L152.455 230.197C152.164 230.488 152 230.883 152 231.295L152 257.491C152 258.349 152.695 259.044 153.553 259.044L179.749 259.044C180.161 259.044 180.556 258.88 180.847 258.589L191.294 248.142C191.586 247.851 191.749 247.456 191.749 247.044Z" fill="#FFFEFA"/>
<path d="M340.504 215.796C340.504 215.907 340.574 216.007 340.677 216.047C346.556 218.37 349.213 222.486 349.213 228.301V232.055C349.213 243.894 342.923 250.344 328.988 250.344H266.088C265.121 250.344 264.637 249.862 264.637 248.9V184.408C264.637 183.445 265.121 182.964 266.088 182.964H328.505C341.085 182.964 346.794 188.355 346.794 200.194V201.927C346.794 208.114 345.091 212.418 340.655 214.654C340.564 214.7 340.504 214.794 340.504 214.896V215.796ZM333.44 201.638C333.44 195.381 330.73 194.9 326.763 194.9H278.549C278.401 194.9 278.281 195.02 278.281 195.168V210.322C278.281 210.47 278.401 210.59 278.549 210.59H326.763C330.73 210.59 333.44 209.627 333.44 203.659V201.638ZM335.859 231.67V228.205C335.859 223.007 333.246 221.274 328.021 221.274H278.549C278.401 221.274 278.281 221.394 278.281 221.542V238.14C278.281 238.288 278.401 238.408 278.549 238.408H328.021C333.246 238.408 335.859 236.964 335.859 231.67Z" fill="#FFFEFA"/>
<path fill-rule="evenodd" clip-rule="evenodd" d="M371.167 238.004C371.167 238.152 371.287 238.271 371.435 238.271H411.096C411.948 238.271 412.764 238.608 413.368 239.209L423.326 249.114C423.733 249.519 423.446 250.215 422.871 250.215H358.974C358.005 250.215 357.523 249.73 357.523 248.772V184.274C357.523 183.316 358.005 182.831 358.974 182.831H369.619C370.586 182.831 371.167 183.316 371.167 184.274V238.004Z" fill="#FFFEFA"/>
<path d="M604.206 250.215C603.277 250.215 602.812 249.742 602.812 248.797V184.249C602.812 183.304 603.277 182.831 604.206 182.831H619.44C620.369 182.831 620.834 183.304 621.391 184.249L651.224 233.654C651.273 233.734 651.36 233.783 651.454 233.783H652.359C652.453 233.783 652.54 233.734 652.588 233.654L682.421 184.249C682.979 183.304 683.443 182.831 684.372 182.831H699.514C700.443 182.831 701 183.304 701 184.249V248.797C701 249.742 700.443 250.215 699.514 250.215H689.296C688.367 250.215 687.902 249.742 687.902 248.797V200.587C687.902 200.439 687.782 200.319 687.634 200.319H687.034C686.939 200.319 686.851 200.37 686.803 200.452L658.548 248.797C657.991 249.742 657.34 250.215 656.412 250.215H647.401C646.472 250.215 645.822 249.742 645.264 248.797L616.917 200.452C616.869 200.37 616.781 200.319 616.686 200.319H616.178C616.03 200.319 615.91 200.439 615.91 200.587V248.797C615.91 249.742 615.353 250.215 614.424 250.215H604.206Z" fill="#FFFEFA"/>
<path fill-rule="evenodd" clip-rule="evenodd" d="M437.356 250.209C436.503 250.209 435.684 249.87 435.08 249.268L420.793 235.01C420.187 234.405 419.847 233.585 419.847 232.73L419.85 200.315C419.85 199.459 420.19 198.639 420.796 198.035L435.096 183.767C435.7 183.164 436.519 182.825 437.372 182.826L486.069 182.846C486.922 182.846 487.739 183.184 488.343 183.787L500.877 196.293L502.646 198.055C503.254 198.66 503.595 199.482 503.594 200.339L503.572 232.737C503.572 233.588 503.234 234.404 502.634 235.007L488.447 249.251C487.843 249.857 487.022 250.198 486.166 250.199L437.356 250.209ZM440.294 238.098H483.127C487.431 238.098 490.084 236.417 490.084 231.622V201.423C490.084 196.628 487.431 194.947 483.127 194.947H440.294C435.993 194.947 433.337 196.628 433.337 201.423V231.622C433.337 232.182 433.374 232.701 433.446 233.179C433.545 233.853 433.714 234.445 433.946 234.964C434.12 235.348 434.328 235.7 434.573 236.012C434.921 236.458 435.34 236.821 435.823 237.112C436.976 237.807 438.489 238.098 440.294 238.098Z" fill="#FFFEFA"/>
<path fill-rule="evenodd" clip-rule="evenodd" d="M528.805 250.214C527.952 250.215 527.134 249.876 526.53 249.273L512.242 235.015C511.637 234.411 511.296 233.591 511.296 232.735L511.299 200.321C511.299 199.465 511.639 198.645 512.245 198.041L526.545 183.772C527.149 183.17 527.968 182.831 528.821 182.832L577.518 182.852C578.371 182.852 579.188 183.19 579.792 183.792L592.326 196.299L594.095 198.061C594.703 198.666 595.044 199.488 595.044 200.345L595.022 232.743C595.021 233.594 594.684 234.41 594.083 235.013L579.896 249.257C579.292 249.863 578.471 250.204 577.615 250.204L528.805 250.214ZM531.743 238.104H574.577C578.881 238.104 581.533 236.422 581.533 231.628V201.428C581.533 196.634 578.881 194.953 574.577 194.953H531.743C527.442 194.953 524.786 196.634 524.786 201.428V231.628C524.786 232.188 524.823 232.707 524.896 233.185C524.995 233.859 525.164 234.451 525.395 234.97C525.569 235.353 525.777 235.706 526.022 236.018C526.37 236.464 526.789 236.827 527.273 237.118C528.425 237.813 529.938 238.104 531.743 238.104Z" fill="#FFFEFA"/>
</svg>
